<svg xmlns="http://www.w3.org/2000/svg" viewBox="0 0 400 400"><path d="M53.8 45.825c-2.286.858-2.936 1.68-3.426 4.334-.801 4.331-.262 130.264.57 133.241.888 3.179 1.62 36.931 1.252 57.8-.334 18.995.362 26.888 2.55 28.915 1.506 1.395 2.123 1.497 11.454 1.895 4.62.197 10.47.547 13 .777 2.53.23 9.583.586 15.672.791 11.691.394 11.933.436 14.475 2.521 1.663 1.364 1.945 3.812 1.442 12.501-1.993 34.436-1.256 38.745 6.811 39.789 6.082.788 63.002 1.033 64.156.277 2.278-1.493 2.705-6.45 2.786-32.324.073-23.356-1.184-21.371 13.489-21.305 13.125.058 12.373-1.556 11.368 24.399-.989 25.527-.824 27.571 2.354 29.122 2.561 1.251 6.376 1.398 36.647 1.417l29 .017 2-.932c3.459-1.613 3.194.459 3.248-25.422.063-30.04-.87-27.606 10.752-28.069 12.377-.493 12.056.208 11.612-25.369l-.264-15.2 1.231-2.094c2.025-3.447 2.118-3.476 12.001-3.714 9.656-.233 9.765-.261 12.324-3.192 2.164-2.478 2.496-3.229 2.496-5.647 0-6.158-4.031-8.726-13.726-8.745-4.737-.009-5.247.151-7.734 2.42-3.231 2.949-10.188 4.772-18.203 4.772-3.983 0-6.685.99-8.298 3.041-.918 1.167-1.098 10.173-.488 24.359.503 11.67.306 11.885-11.144 12.215-8.741.252-9.259.341-9.92 1.706-.805 1.665-.881 3.048-1.092 19.935-.316 25.31.171 24.322-11.995 24.331-11.18.009-12.369-1.17-12.276-12.178.056-6.566.236-7.532 1.915-10.244.489-.789 1.247-2.595 1.685-4.014.439-1.419 1.433-3.744 2.211-5.166 1.75-3.201 3.019-9.145 2.439-11.431-.841-3.322.96-3.12-30.503-3.421-15.329-.146-32.063-.398-37.187-.56-10.349-.325-12.936-.02-14.571 1.719-1.167 1.241-1.507 15.563-.698 29.336.583 9.914.546 10.182-1.723 12.512-2.629 2.699-11.413 3.632-16.849 1.788-4.203-1.425-5.712-9.871-3.616-20.245 1.32-6.536 1.244-6.309 2.61-7.864 3.201-3.646 4.833-13.41 2.748-16.441-2.185-3.176-2.61-3.217-37.876-3.63l-23.691-.277-.909-.968-.909-.967-.255-39.668c-.157-24.443-.423-41.126-.693-43.468-.852-7.39-1.246-10.218-1.643-11.8-1.453-5.79-1.587-75.2-.149-76.639 1.147-1.146 4.277-.462 6.842 1.496.968.739 2.004 1.343 2.302 1.343.596 0 5.917 4.133 7.196 5.589.44.501 2.093 1.786 3.672 2.855 1.58 1.069 2.987 2.128 3.127 2.354.14.226 1.232 1.037 2.427 1.802 1.196.764 2.174 1.564 2.174 1.776 0 .212.797.934 1.771 1.604 5.115 3.519 6.273 6.484 6.583 16.851.372 12.464-.261 12.03 18.646 12.756 16.93.649 23.976 1.128 35.2 2.392 10.484 1.181 37.237 1.993 66.2 2.011 16.335.009 15.758.367 15.795-9.79.034-8.957 1.222-11.196 9.341-17.6 1.394-1.1 3.57-2.945 4.836-4.1 1.265-1.155 2.464-2.102 2.664-2.105.35-.005 4.537-3.254 7.279-5.649 2.324-2.029 4.826-3.02 7.163-2.835 3.776.297 3.553-1.537 3.322 27.289-.382 47.792-.252 82.909.312 83.896.94 1.645 2.515 2.095 11.526 3.295 8.161 1.087 8.269.257 8.931-68.791.176-18.37.299-40.33.274-48.8l-.045-15.4-.999-2.379c-1.68-4.001-2.964-4.433-12.989-4.372-10.536.065-16.858 1.946-22.564 6.713-.947.791-1.883 1.438-2.08 1.438-.196 0-1.351.9-2.566 2-1.215 1.1-2.376 2-2.58 2-.205 0-1.581.927-3.059 2.059-1.478 1.133-3.618 2.618-4.756 3.3a175.115 175.115 0 0 0-7.707 4.921c-1.044.704-2.978 1.848-4.298 2.544-1.32.695-2.989 1.706-3.708 2.247-.72.54-2.559 1.408-4.087 1.927-1.528.52-3.6 1.51-4.603 2.201-1.004.69-2.765 1.671-3.913 2.18-2.649 1.174-5.593 4.454-7.488 8.344-1.967 4.04-2.827 4.477-8.801 4.477-5.998 0-32.832-.958-39-1.393-2.64-.186-8.13-.554-12.2-.817-14.786-.958-17.9-1.82-19.082-5.288-.395-1.156-1.662-4.019-2.816-6.361-2.541-5.155-4.651-7.33-14.102-14.529a165.154 165.154 0 0 1-8.115-6.641c-1.147-1.006-2.715-2.258-3.485-2.781-.77-.524-3.215-2.426-5.433-4.226-2.218-1.801-4.558-3.546-5.201-3.878-.642-.332-1.527-1.007-1.967-1.499-.439-.493-2.262-1.843-4.051-3.001-1.788-1.158-3.375-2.306-3.527-2.551-.151-.246-.979-.805-1.838-1.244-.86-.438-2.45-1.561-3.535-2.494-2.798-2.409-5.949-4.369-10.648-6.626-1.32-.634-3.12-1.532-4-1.995-3.042-1.603-15.778-2.586-18.8-1.451m63.679 116.736c-4.488.972-4.984 2.535-4.835 15.239.057 4.84.115 10.479.13 12.531.055 7.887 3.679 9.089 28.626 9.499 19.837.325 18.924.979 19.62-14.03.629-13.554.39-17.096-1.328-19.684-2.387-3.594.374-3.253-31.492-3.89-5.831-.117-9.11-.014-10.721.335m94.862 4.09c-3.633.813-3.891 1.786-3.913 14.749-.026 15.89 2.934 20.909 12.972 22 4.408.48 30.197.486 30.591.008.881-1.066 1.515-24.557.814-30.141-.572-4.554-.727-4.905-2.7-6.131l-1.505-.936h-17.122c-11.247 0-17.813.155-19.137.451m-40.531 38.303c-1.272 1.272-1.971 3.883-1.87 6.993.094 2.912.3 3.41 2.706 6.518.964 1.246 2.09 3.046 2.502 4 2.499 5.791 7.232 8.448 12.343 6.93 2.326-.691 3.265-1.649 4.495-4.59.505-1.207 1.341-2.75 1.859-3.429 4.58-6.005 3.809-11.81-1.802-13.569-1.234-.387-3.119-1.146-4.191-1.686-4.495-2.268-14.233-2.976-16.042-1.167m79.608 3.941c-1.546 3.701-1.855 12.768-.505 14.829 1.849 2.821 8.881 3.213 10.742.598 1.602-2.25.98-5.909-1.693-9.96-1.221-1.849-2.497-3.813-2.836-4.364-.378-.615-1.295-1.202-2.371-1.519-.965-.283-1.983-.613-2.261-.733-.305-.131-.731.323-1.076 1.149m-148.121-.128c-3.853 1.803-3.641 11.621.295 13.629 2.932 1.496 7.395-.986 9.826-5.465l1.34-2.469-1.887-2.53c-2.779-3.724-6.06-4.809-9.574-3.165" fill="currentColor"/></svg>